<svg width="48" height="48" viewBox="0 0 48 48" fill="none" xmlns="http://www.w3.org/2000/svg">
<circle cx="24" cy="24" r="23" stroke="#FF5452" stroke-width="2"/>
<path d="M26.047 12.7273L25.8197 29.4546H23.1833L22.9561 12.7273H26.047ZM24.5015 36.1818C23.9409 36.1818 23.4598 35.9811 23.0583 35.5796C22.6568 35.1781 22.4561 34.697 22.4561 34.1364C22.4561 33.5758 22.6568 33.0947 23.0583 32.6932C23.4598 32.2917 23.9409 32.0909 24.5015 32.0909C25.0621 32.0909 25.5432 32.2917 25.9447 32.6932C26.3462 33.0947 26.547 33.5758 26.547 34.1364C26.547 34.5076 26.4523 34.8485 26.2629 35.1591C26.0811 35.4697 25.8348 35.7197 25.5242 35.9091C25.2212 36.0909 24.8803 36.1818 24.5015 36.1818Z" fill="#FF5452"/>
</svg>
